<svg width="200" height="56" viewBox="0 0 200 56" fill="none" xmlns="http://www.w3.org/2000/svg">
<path fill-rule="evenodd" clip-rule="evenodd" d="M90.6137 33.0059L89.3984 38.7518H86.6032L91.2213 17.928H94.5325L98.8772 38.7518H96.0517L94.8667 33.0059H90.6137ZM94.5325 30.6886L93.5907 25.7136C93.3172 24.2923 93.0438 22.4395 92.8316 20.9559H92.7096C92.4974 22.4699 92.1926 24.385 91.9201 25.7136L90.9479 30.6886H94.5325ZM109.547 17.3723V34.8901C109.547 36.0338 109.607 37.7023 109.668 38.7523H107.207L107.025 36.9299H106.934C106.448 37.9799 105.323 39 103.835 39C101.101 39 99.4297 35.9715 99.4297 31.3071C99.4297 25.9927 101.647 23.49 103.987 23.49C105.171 23.49 106.113 24.0467 106.63 25.1894H106.691V17.3723H109.547ZM106.69 29.4527C106.69 29.1751 106.69 28.8353 106.66 28.5253C106.508 27.1663 105.748 25.9922 104.716 25.9922C102.923 25.9922 102.316 28.5253 102.316 31.3065C102.316 34.3963 103.105 36.5586 104.625 36.5586C105.263 36.5586 106.113 36.2187 106.599 34.4272C106.66 34.18 106.69 33.8087 106.69 33.4699V29.4527ZM116.349 38.9995C113.403 38.9995 111.275 36.435 111.275 31.2762C111.275 25.8068 113.797 23.4895 116.501 23.4895C119.417 23.4895 121.513 26.1467 121.513 31.2139C121.513 37.1771 118.627 38.9995 116.379 38.9995H116.349ZM116.44 36.7136C118.201 36.7136 118.597 33.5312 118.597 31.2453C118.597 28.9892 118.202 25.7764 116.38 25.7764C114.495 25.7764 114.131 28.9892 114.131 31.2453C114.131 33.7474 114.557 36.7136 116.41 36.7136H116.44ZM123.235 17.3723H126.09V25.436H126.151C126.911 24.0771 127.944 23.4895 129.25 23.4895C131.771 23.4895 133.352 26.3938 133.352 30.9976C133.352 36.3732 131.195 38.9995 128.764 38.9995C127.306 38.9995 126.485 38.1956 125.847 36.867H125.726L125.574 38.7518H123.113C123.174 37.7327 123.235 36.0333 123.235 34.8896V17.3723ZM126.09 33.4374C126.09 33.7783 126.121 34.1182 126.212 34.3649C126.667 36.1883 127.549 36.5586 128.125 36.5586C129.827 36.5586 130.465 34.2727 130.465 31.183C130.465 28.3095 129.797 25.9922 128.095 25.9922C127.153 25.9922 126.394 27.1354 126.181 28.2168C126.12 28.5258 126.09 28.928 126.09 29.2364V33.4374H126.09ZM137.566 31.8313C137.596 35.6935 139.236 36.6508 140.968 36.6508C142.001 36.6508 142.882 36.4041 143.52 36.0946L143.946 38.1956C143.064 38.6591 141.728 38.9068 140.421 38.9068C136.715 38.9068 134.771 36.0642 134.771 31.4296C134.771 26.5169 136.988 23.489 140.057 23.489C143.125 23.489 144.553 26.486 144.553 30.256C144.553 30.9971 144.522 31.461 144.492 31.8622L137.566 31.8313ZM141.849 29.7617C141.88 27.1045 140.968 25.6837 139.844 25.6837C138.355 25.6837 137.687 27.8774 137.596 29.7617H141.849Z" fill="#D9D9D9"/>
<path fill-rule="evenodd" clip-rule="evenodd" d="M70.5086 17.9834H79.0395V38.7516L70.5086 17.9834ZM64.4989 17.9834H55.9619V38.7516L64.4989 17.9834ZM67.5042 25.6372L72.9397 38.7516H69.3778L67.7524 34.5748H63.7738L67.5042 25.6372Z" fill="#D9D9D9"/>
</svg>
