<svg width="32" height="33" viewBox="0 0 32 33" fill="none" xmlns="http://www.w3.org/2000/svg">
<path d="M4.39467 27.7999L12.88 19.3146M23.5653 15.5412L21.0253 23.1612C20.9848 23.2834 20.9154 23.3939 20.823 23.4835C20.7306 23.5731 20.618 23.6391 20.4947 23.6759L4.924 28.3039C4.78372 28.3456 4.6347 28.3479 4.49316 28.3108C4.35162 28.2737 4.22298 28.1984 4.12124 28.0932C4.0195 27.988 3.94855 27.857 3.91613 27.7143C3.8837 27.5716 3.89104 27.4227 3.93734 27.2839L8.99333 12.1186C9.02957 12.0097 9.08881 11.9099 9.16703 11.8259C9.24525 11.7419 9.34062 11.6758 9.44667 11.6319L16.6293 8.67456C16.7754 8.61426 16.936 8.59853 17.0909 8.62938C17.2459 8.66023 17.3882 8.73626 17.5 8.8479L23.372 14.7226C23.4771 14.8276 23.5508 14.9598 23.585 15.1044C23.6191 15.249 23.6123 15.4003 23.5653 15.5412Z" stroke="#EC1C24" stroke-width="2" stroke-linecap="round" stroke-linejoin="round"/>
<path d="M23.7227 15.0719L27.4933 11.2999C27.9933 10.7998 28.2741 10.1217 28.2741 9.41455C28.2741 8.70745 27.9933 8.0293 27.4933 7.52922L24.6667 4.69989C24.419 4.45215 24.125 4.25563 23.8014 4.12155C23.4778 3.98747 23.1309 3.91846 22.7807 3.91846C22.4304 3.91846 22.0835 3.98747 21.7599 4.12155C21.4363 4.25563 21.1423 4.45215 20.8947 4.69989L17.124 8.47189M15.708 16.4852C15.5222 16.2995 15.3017 16.1523 15.059 16.0518C14.8163 15.9513 14.5562 15.8997 14.2935 15.8997C14.0309 15.8998 13.7708 15.9516 13.5281 16.0522C13.2855 16.1527 13.065 16.3001 12.8793 16.4859C12.6936 16.6717 12.5464 16.8922 12.4459 17.1349C12.3454 17.3776 12.2938 17.6377 12.2938 17.9004C12.2939 18.163 12.3457 18.4231 12.4463 18.6658C12.5468 18.9084 12.6942 19.1289 12.88 19.3146C13.2552 19.6896 13.764 19.9002 14.2945 19.9001C14.8249 19.8999 15.3336 19.6891 15.7087 19.3139C16.0837 18.9387 16.2943 18.4299 16.2942 17.8994C16.294 17.3689 16.0832 16.8602 15.708 16.4852Z" stroke="#EC1C24" stroke-width="2" stroke-linecap="round" stroke-linejoin="round"/>
</svg>
