<svg width="24" height="25" viewBox="0 0 24 25" fill="none" xmlns="http://www.w3.org/2000/svg">
<mask id="mask0_183_295" style="mask-type:luminance" maskUnits="userSpaceOnUse" x="1" y="1" width="22" height="23">
<path d="M12 22.8306C13.3135 22.8322 14.6143 22.5743 15.8278 22.0716C17.0412 21.569 18.1434 20.8315 19.071 19.9016C20.0009 18.974 20.7384 17.8718 21.2411 16.6583C21.7437 15.4449 22.0016 14.144 22 12.8306C22.0016 11.5171 21.7437 10.2163 21.2411 9.00281C20.7384 7.78934 20.0009 6.68715 19.071 5.75957C18.1434 4.82965 17.0412 4.09218 15.8278 3.58952C14.6143 3.08687 13.3135 2.82895 12 2.83057C10.6866 2.82895 9.38572 3.08687 8.17225 3.58952C6.95878 4.09218 5.85659 4.82965 4.92901 5.75957C3.99909 6.68715 3.26162 7.78934 2.75897 9.00281C2.25631 10.2163 1.99839 11.5171 2.00001 12.8306C1.99839 14.144 2.25631 15.4449 2.75897 16.6583C3.26162 17.8718 3.99909 18.974 4.92901 19.9016C5.85659 20.8315 6.95878 21.569 8.17225 22.0716C9.38572 22.5743 10.6866 22.8322 12 22.8306Z" fill="#555555" stroke="white" stroke-width="2" stroke-linejoin="round"/>
<path d="M8 12.8306L11 15.8306L17 9.83057" stroke="white" stroke-width="2" stroke-linecap="round" stroke-linejoin="round"/>
</mask>
<g mask="url(#mask0_183_295)">
<path d="M0 0.830566H24V24.8306H0V0.830566Z" fill="white"/>
</g>
</svg>
