<svg width="48" height="49" viewBox="0 0 48 49" fill="none" xmlns="http://www.w3.org/2000/svg">
<path d="M6.592 42.0346L19.32 29.3066M35.348 23.6466L31.538 35.0786C31.4769 35.2614 31.3727 35.4269 31.2341 35.5609C31.0956 35.6949 30.9268 35.7936 30.742 35.8486L7.386 42.7926C7.17558 42.8551 6.95206 42.8586 6.73974 42.8029C6.52743 42.7472 6.33447 42.6343 6.18186 42.4765C6.02924 42.3188 5.92283 42.1222 5.87419 41.9081C5.82555 41.6941 5.83656 41.4708 5.906 41.2626L13.49 18.5146C13.5444 18.3512 13.6332 18.2015 13.7505 18.0755C13.8679 17.9496 14.0109 17.8503 14.17 17.7846L24.944 13.3486C25.163 13.2581 25.404 13.2345 25.6364 13.2808C25.8688 13.3271 26.0823 13.4411 26.25 13.6086L35.058 22.4186C35.2156 22.5761 35.3262 22.7745 35.3774 22.9914C35.4287 23.2083 35.4185 23.4351 35.348 23.6466Z" stroke="white" stroke-width="1.5" stroke-linecap="round" stroke-linejoin="round"/>
<path d="M36.806 7.19456L41.534 11.9226C41.8893 12.2625 42.1731 12.67 42.3688 13.121C42.5644 13.5721 42.668 14.0578 42.6735 14.5495C42.6789 15.0411 42.5861 15.529 42.4004 15.9843C42.2148 16.4396 41.94 16.8532 41.5923 17.2009C41.2446 17.5486 40.831 17.8234 40.3757 18.009C39.9204 18.1947 39.4326 18.2875 38.9409 18.2821C38.4492 18.2766 37.9636 18.173 37.5125 17.9774C37.0614 17.7817 36.6539 17.4979 36.314 17.1426L31.584 12.4146C30.9168 11.7173 30.5492 10.7865 30.5599 9.82147C30.5706 8.85649 30.9587 7.93404 31.6411 7.25165C32.3234 6.56926 33.2459 6.18118 34.2109 6.17051C35.1759 6.15984 36.1087 6.52743 36.806 7.19456Z" fill="white" stroke="white" stroke-width="1.5" stroke-linecap="round" stroke-linejoin="round"/>
<path d="M23.562 25.0626C23.2853 24.7761 22.9543 24.5475 22.5883 24.3903C22.2222 24.2331 21.8286 24.1503 21.4302 24.1468C21.0319 24.1434 20.6369 24.2193 20.2682 24.3701C19.8995 24.521 19.5645 24.7437 19.2829 25.0254C19.0012 25.3071 18.7784 25.642 18.6276 26.0107C18.4767 26.3794 18.4008 26.7745 18.4043 27.1728C18.4077 27.5711 18.4905 27.9648 18.6477 28.3308C18.805 28.6968 19.0335 29.0279 19.32 29.3046C19.8858 29.8511 20.6437 30.1535 21.4302 30.1466C22.2168 30.1398 22.9693 29.8243 23.5255 29.2681C24.0817 28.7118 24.3972 27.9594 24.4041 27.1728C24.4109 26.3862 24.1085 25.6284 23.562 25.0626Z" stroke="white" stroke-width="1.5" stroke-linecap="round" stroke-linejoin="round"/>
</svg>
