<svg width="48" height="49" viewBox="0 0 48 49" fill="none" xmlns="http://www.w3.org/2000/svg">
<path opacity="0.16" fill-rule="evenodd" clip-rule="evenodd" d="M24 42.8306C26.3638 42.8306 28.7044 42.365 30.8883 41.4604C33.0722 40.5558 35.0565 39.2299 36.7279 37.5585C38.3994 35.887 39.7253 33.9027 40.6298 31.7189C41.5344 29.535 42 27.1944 42 24.8306C42 22.4668 41.5344 20.1261 40.6298 17.9423C39.7253 15.7584 38.3994 13.7741 36.7279 12.1026C35.0565 10.4312 33.0722 9.10532 30.8883 8.20073C28.7044 7.29615 26.3638 6.83057 24 6.83057C19.2261 6.83057 14.6477 8.72699 11.2721 12.1026C7.89642 15.4783 6 20.0567 6 24.8306C6 29.6045 7.89642 34.1828 11.2721 37.5585C14.6477 40.9341 19.2261 42.8306 24 42.8306ZM30 18.8306L22.614 20.3086C21.8402 20.4636 21.1296 20.8441 20.5716 21.4022C20.0136 21.9602 19.6331 22.6708 19.478 23.4446L18 30.8306L25.386 29.3526C26.1601 29.1978 26.8712 28.8175 27.4296 28.2595C27.988 27.7014 28.3688 26.9906 28.524 26.2166L30 18.8306Z" fill="white"/>
<path d="M24 42.8306C33.9411 42.8306 42 34.7717 42 24.8306C42 14.8894 33.9411 6.83057 24 6.83057C14.0589 6.83057 6 14.8894 6 24.8306C6 34.7717 14.0589 42.8306 24 42.8306Z" stroke="white" stroke-width="2" stroke-linecap="round" stroke-linejoin="round"/>
<path d="M22.614 20.3086L30 18.8306L28.522 26.2166C28.3673 26.9907 27.9869 27.7018 27.4289 28.2602C26.8709 28.8186 26.16 29.1994 25.386 29.3546L18 30.8306L19.478 23.4446C19.6331 22.6708 20.0136 21.9602 20.5716 21.4022C21.1296 20.8441 21.8402 20.4636 22.614 20.3086Z" stroke="white" stroke-width="2" stroke-linecap="round" stroke-linejoin="round"/>
</svg>
