<svg width="24" height="25" viewBox="0 0 24 25" fill="none" xmlns="http://www.w3.org/2000/svg">
<path d="M20.25 7.50098H3.75C3.33579 7.50098 3 7.83676 3 8.25098C3 8.66519 3.33579 9.00098 3.75 9.00098H20.25C20.6642 9.00098 21 8.66519 21 8.25098C21 7.83676 20.6642 7.50098 20.25 7.50098Z" fill="#D9D9D9"/>
<path d="M17.25 11.751H3.75C3.33579 11.751 3 12.0868 3 12.501C3 12.9152 3.33579 13.251 3.75 13.251H17.25C17.6642 13.251 18 12.9152 18 12.501C18 12.0868 17.6642 11.751 17.25 11.751Z" fill="#D9D9D9"/>
<path d="M20.25 15.999H3.75C3.33579 15.999 3 16.3348 3 16.749C3 17.1632 3.33579 17.499 3.75 17.499H20.25C20.6642 17.499 21 17.1632 21 16.749C21 16.3348 20.6642 15.999 20.25 15.999Z" fill="#D9D9D9"/>
</svg>
