<svg width="62" height="68" viewBox="0 0 62 68" fill="none" xmlns="http://www.w3.org/2000/svg">
<path d="M1.86105 8.08599C1.99017 8.82441 2.52518 10.1715 2.83037 10.9054C2.83583 10.9188 2.84129 10.9321 2.84676 10.9455C2.91816 11.1182 2.9823 11.2836 3.05819 11.4781C3.24147 11.9452 3.4824 12.5673 4.07475 13.8385C4.22395 14.2149 4.38015 14.5999 4.53443 14.9714C6.22238 19.0301 8.19071 22.9723 10.3966 26.7784C10.4226 26.8274 10.4491 26.8772 10.4759 26.9274C10.9948 27.9032 11.6625 29.0995 12.1383 29.8168C12.7437 30.7324 13.1795 31.3377 13.5406 31.83C15.3727 34.5605 17.3409 37.202 19.611 39.6216C19.754 39.7732 19.9005 39.9269 20.0503 40.0827C20.8169 40.8795 21.5847 41.6415 22.3765 42.4082C23.096 43.1047 23.8328 43.7993 24.5675 44.4781C24.9803 44.8886 25.3817 45.2886 25.7443 45.6468C26.2642 46.1594 26.7248 46.6052 27.1231 46.9624C28.0812 47.8228 29.2233 48.7163 30.089 49.3773C30.2282 49.4837 30.3603 49.5842 30.4827 49.6774C31.1413 50.2292 31.8017 50.774 32.471 51.3167C32.5223 51.3444 32.5744 51.3721 32.6273 51.4001C33.2822 51.7447 33.9965 52.2981 35.1299 53.1444C35.6272 53.5151 36.1984 53.9364 36.8891 54.4221C37.3327 54.7336 37.5896 54.8529 37.7993 54.9505C37.861 54.9792 37.9189 55.0061 37.9761 55.0352C38.1723 55.1349 38.3405 55.295 38.5396 55.4834C38.7981 55.7277 39.1095 56.0207 39.6023 56.2884C41.174 57.1394 41.7643 57.6627 42.2114 58.0645C42.3425 58.1818 42.4616 58.2877 42.5899 58.3861C43.0081 58.707 43.665 59.0685 44.1748 59.3114C44.5838 59.5082 45.3192 60.0105 45.8766 60.4085C46.0873 60.5593 46.3877 60.7359 46.741 60.9398C47.1031 61.1489 47.5381 61.3962 47.9826 61.6716C49.1135 62.3703 49.7239 62.7182 50.2239 63.0034C50.366 63.084 50.4983 63.1584 50.6301 63.2323C51.0445 63.4648 51.5713 63.7434 52.1088 64.0163C52.7413 64.3386 53.4171 64.6644 53.9106 64.907C55.2622 65.4524 56.6218 65.9313 58.0336 66.3314C58.7657 66.539 59.4746 66.614 60.0474 66.5624C60.6082 66.5075 60.9334 66.3264 60.9827 66.0851C61.0311 65.8421 60.8057 65.5568 60.3574 65.2625C59.8961 64.965 59.2945 64.689 58.6164 64.4572C57.2619 63.9941 55.9501 63.4482 54.6375 62.8476C53.0429 62.1166 51.4815 61.3171 49.9311 60.4873C48.843 59.9046 47.7711 59.3043 46.6999 58.6824C46.5889 58.6179 46.4797 58.5544 46.3705 58.4905C45.5129 57.9079 44.6619 57.3129 44.0561 56.9047C43.5542 56.5667 43.1712 56.3572 42.8397 56.1743C42.6122 56.0487 42.4104 55.9363 42.2183 55.8062C42.1153 55.7364 41.9757 55.6393 41.8074 55.5217C41.1193 55.042 39.9606 54.215 38.8653 53.5111C38.3792 53.1995 37.8042 52.8509 37.2569 52.5133C36.4764 52.0328 35.7487 51.5712 35.4176 51.2964C34.8337 50.8126 34.1256 50.3085 33.5024 49.8567C32.9054 49.424 32.3966 49.0483 32.1331 48.7852C31.8218 48.4735 31.5221 48.2583 31.076 47.9336C30.7637 47.7058 30.3822 47.4261 29.8892 47.0292C29.3087 46.5613 28.8932 46.2539 28.5374 45.9889C28.0285 45.6083 27.6629 45.3336 27.1687 44.8243C26.6239 44.262 26.0468 43.69 25.5626 43.275C25.3457 43.0895 25.0978 42.8586 24.8444 42.6199C24.5097 42.3047 24.1672 41.9775 23.8279 41.6845C23.5503 41.4449 23.313 41.2816 23.0879 41.1211C23.0183 41.0716 22.9518 41.0242 22.8886 40.9777C22.6808 40.7727 22.4779 40.5698 22.2803 40.3693C22.2535 40.3314 22.2229 40.2884 22.1925 40.2452C22.0387 40.0272 21.8538 39.7616 21.6087 39.4683C21.3235 39.128 21.0376 38.8315 20.7649 38.5586C20.6539 38.4473 20.5415 38.3356 20.4275 38.2205C20.1163 37.9064 19.7951 37.5713 19.4647 37.1615C19.2365 36.8787 18.9932 36.5478 18.7574 36.2173C18.4018 35.7204 18.0692 35.232 17.8059 34.9058C17.7076 34.7842 17.6025 34.6916 17.5005 34.6023C17.5 34.6019 17.4995 34.6015 17.499 34.6012C17.4921 34.5952 17.4853 34.5891 17.4784 34.5831C16.9044 33.7541 16.3469 32.8987 15.8117 32.0355C15.7701 31.958 15.7279 31.8796 15.6861 31.8017C15.4821 31.4216 15.2844 31.0449 15.1837 30.7902C15.0738 30.5138 14.7035 29.8615 14.3321 29.1767C14.0864 28.7253 13.8374 28.2565 13.6475 27.8675C13.5362 27.6397 13.3897 27.4466 13.2392 27.2466C13.0996 27.0616 12.9569 26.8709 12.8371 26.6412C12.7772 26.5261 12.7202 26.3974 12.6597 26.2597C12.6065 26.1386 12.5501 26.0097 12.4871 25.8784C12.4286 25.7565 12.2694 25.5009 12.067 25.1704C11.9421 24.9664 11.8002 24.7326 11.6563 24.4868C11.3214 23.8123 10.9916 23.1325 10.6679 22.4518C10.6215 22.2991 10.5919 22.1613 10.5842 22.0444C10.5787 21.9606 10.5841 21.8842 10.5895 21.8059C10.5969 21.6994 10.6046 21.5892 10.5864 21.4518C10.5722 21.3444 10.5313 21.2299 10.4825 21.1634C10.4598 21.1324 10.4356 21.1119 10.4137 21.0933C10.3886 21.072 10.3662 21.0529 10.352 21.0232C10.3419 21.0018 10.3394 20.9755 10.3362 20.9433C10.3311 20.8918 10.3244 20.8249 10.2832 20.7383C10.13 20.4163 9.94691 20.0529 9.76975 19.6968C9.57268 19.3008 9.38266 18.9131 9.24385 18.5966C9.08818 18.2421 8.82931 17.7601 8.57093 17.2686C8.39109 16.9269 8.21379 16.5859 8.07207 16.2874C7.93245 15.9932 7.81543 15.6757 7.704 15.3691C7.57091 15.0026 7.44238 14.6439 7.2905 14.3605C7.25973 14.3031 7.19403 14.2434 7.11186 14.1685C7.05363 14.1154 6.9869 14.0541 6.91867 13.9813C6.76384 13.6085 6.6045 13.2236 6.44982 12.8484C6.44917 12.8331 6.44843 12.8175 6.4478 12.8018C6.44782 12.8015 6.44785 12.8012 6.44787 12.801C6.4345 12.4486 6.4136 11.9581 6.08969 11.3962C6.0074 11.2534 5.92784 11.1747 5.85622 11.1037C5.78627 11.035 5.72216 10.9693 5.6721 10.8602C5.61509 10.7358 5.58086 10.5767 5.54423 10.404C5.49248 10.1608 5.43775 9.89488 5.3047 9.65011C5.29558 9.63332 5.28573 9.61527 5.27559 9.59645C5.1794 9.41799 5.03824 9.15487 4.86023 8.90927C4.5428 8.1004 4.2309 7.2883 3.92724 6.47113C3.42187 5.11044 2.94062 3.74363 2.5065 2.3651C2.29694 1.70242 2.02055 1.07157 1.72985 0.631248C1.43629 0.180435 1.15268 -0.0317535 0.915168 0.0183868C0.678885 0.0704193 0.505116 0.384605 0.447318 0.93425C0.386882 1.47219 0.44943 2.18543 0.613496 2.88365C0.883737 4.03254 1.18835 5.18433 1.51104 6.30906C1.52533 6.3695 1.53997 6.43027 1.55493 6.49082C1.66896 6.94958 1.73338 7.3569 1.80863 7.78912C1.82566 7.8876 1.84297 7.98658 1.86105 8.08599ZM61.2667 63.8762C61.2782 63.6882 61.0771 63.4795 60.9665 63.3647C60.9645 63.3625 60.9625 63.3604 60.9605 63.3583C60.9343 63.331 60.913 63.3028 60.8881 63.2697C60.8288 63.1908 60.7485 63.084 60.5299 62.8965C60.4864 62.8283 60.4418 62.7607 60.396 62.694C59.9012 61.973 59.3275 61.3057 58.7395 60.6489C58.7337 60.6394 58.7279 60.6297 58.722 60.62C58.6078 60.4313 58.4679 60.1998 58.3364 60.082C58.169 59.9319 58.0448 59.8382 57.9412 59.7625C57.4729 59.2395 57.0155 58.7133 56.597 58.1556C56.4664 57.9816 56.3402 57.8053 56.2176 57.6236C56.1049 57.4565 55.9986 57.2922 55.8905 57.1192C55.8459 57.0077 55.8089 56.8989 55.7749 56.7985C55.7276 56.6581 55.6841 56.5311 55.6338 56.4358C55.5127 56.2065 55.3177 55.9928 55.1694 55.8287C55.1454 55.8023 55.1228 55.7774 55.1022 55.7542C55.0205 55.6036 54.9404 55.4531 54.8585 55.2991C54.8441 55.2948 54.8293 55.2908 54.8142 55.2868C54.6249 55.235 54.5306 55.0907 54.373 54.8492C54.305 54.745 54.2287 54.6281 54.1281 54.4931C54.0622 54.4047 53.9889 54.3864 53.9289 54.3713C53.9113 54.3669 53.8948 54.3627 53.8801 54.3573C53.8297 54.3385 53.833 54.2814 53.8372 54.2144C53.8424 54.127 53.8505 54.0249 53.7398 53.9605C53.3908 53.7612 53.4117 53.5685 53.4225 53.4151C53.4261 53.3709 53.4295 53.3309 53.4233 53.2965C53.4024 53.1835 53.2892 53.0911 53.1739 53.0251C53.084 52.9752 53.0264 52.7997 53.0058 52.6571C52.9974 52.6022 52.9585 52.5413 52.9147 52.4726C52.8691 52.4013 52.8171 52.32 52.7841 52.2215C52.6916 51.9584 52.6492 51.8338 52.608 51.7227C52.5964 51.6912 52.5856 51.6621 52.5752 51.6332C52.5415 51.5402 52.499 51.4403 52.4491 51.328C52.3885 51.192 52.339 51.0722 52.3027 50.9591C52.1307 50.7411 51.9495 50.5186 51.7853 50.3132C51.6947 50.1975 51.5387 50.1456 51.3387 50.158C51.1339 50.1618 50.9042 50.2306 50.6788 50.3321C50.4535 50.4329 50.2602 50.586 50.1575 50.7829C50.0475 50.9658 50.0255 51.1533 50.0912 51.3044C50.2114 51.587 50.3366 51.8653 50.4701 52.1384C50.6274 52.4623 50.8077 52.7942 50.9992 53.0922C51.1407 53.3123 51.2768 53.5118 51.4268 53.7231C51.4415 53.7438 51.4565 53.7645 51.4715 53.7854C51.5343 53.9935 51.6085 54.208 51.6709 54.3394C51.7243 54.4505 51.8014 54.5088 51.8676 54.5589C51.9134 54.594 51.9529 54.6233 51.9761 54.6635C51.9887 54.6852 52.0043 54.7158 52.0234 54.753C52.1011 54.9045 52.2372 55.1675 52.4314 55.3533C52.5179 55.4363 52.6397 55.5262 52.7508 55.6039C52.9115 55.7179 53.0636 55.8272 53.096 55.9126C53.1519 56.061 53.2727 56.1878 53.3823 56.304C53.4868 56.4147 53.5778 56.5108 53.5839 56.594C53.5917 56.6941 53.65 56.7454 53.7372 56.8222C53.7974 56.8751 53.873 56.9429 53.9528 57.0438C54.0448 57.1601 54.1323 57.2287 54.2068 57.2872C54.3114 57.369 54.3923 57.4339 54.4229 57.5816C54.4573 57.7465 54.5158 57.9057 54.6053 58.0028C54.646 58.0469 54.6828 58.1055 54.7199 58.1647C54.7688 58.2428 54.8206 58.3253 54.8893 58.3866C54.946 58.4371 55.0199 58.4609 55.0853 58.482C55.1057 58.4886 55.1253 58.495 55.1433 58.5018C55.1757 58.551 55.2082 58.6006 55.2401 58.6504C55.2389 58.6625 55.2374 58.6755 55.2359 58.6889C55.2282 58.7567 55.2189 58.84 55.2409 58.9208C55.2758 59.0489 55.36 59.1256 55.4493 59.2068C55.519 59.2702 55.5913 59.3358 55.6446 59.4293C55.6811 59.4933 55.7119 59.5737 55.7426 59.6537C55.7882 59.7724 55.8337 59.89 55.8967 59.9508C55.9204 59.9737 55.9604 59.979 56.0003 59.9845C56.0005 59.9845 56.0008 59.9845 56.001 59.9845C56.0037 59.9848 56.0064 59.9852 56.0091 59.9856C56.1055 60.1686 56.2008 60.354 56.2957 60.5411C56.2995 60.5604 56.3034 60.5797 56.3073 60.5989C56.3263 60.6921 56.3443 60.782 56.3336 60.8564C56.322 60.937 56.3807 61.0799 56.443 61.2313C56.4838 61.3304 56.5262 61.4331 56.5503 61.5226C56.5645 61.5751 56.6177 61.5979 56.6724 61.6214C56.7235 61.6434 56.7759 61.6659 56.7994 61.7138C56.8111 61.7377 56.8166 61.7685 56.8224 61.8015C56.8275 61.8305 56.8329 61.8611 56.8432 61.8901C56.8528 61.9171 56.9014 61.9584 56.9637 62.0115C57.0023 62.0445 57.0455 62.0812 57.0883 62.1221C57.1586 62.2592 57.2297 62.3963 57.3022 62.5328C57.2978 62.5746 57.2843 62.6175 57.2593 62.6613C57.2414 62.6927 57.2169 62.7257 57.1919 62.7596C57.1579 62.8056 57.1227 62.8533 57.1011 62.9006C57.0841 62.9375 57.0865 62.9656 57.1078 62.9711C57.1177 62.9736 57.1315 62.9713 57.144 62.9693C57.1584 62.9669 57.1711 62.9648 57.1746 62.9705C57.1771 62.9747 57.1723 62.9841 57.1665 62.9955C57.1571 63.0139 57.1452 63.0376 57.1555 63.0542C57.1941 63.116 57.2469 63.18 57.2988 63.2428C57.3565 63.3127 57.4129 63.381 57.4469 63.443C57.4851 63.5125 57.5771 63.5856 57.6689 63.6585C57.733 63.7095 57.7971 63.7606 57.8432 63.8106C57.8885 63.8595 57.9115 63.927 57.9338 63.9925C57.9605 64.0711 57.9862 64.1468 58.0481 64.1835C58.0607 64.1909 58.1009 64.1831 58.1512 64.1735C58.1869 64.1667 58.2277 64.159 58.2674 64.1549C58.3144 64.2233 58.3627 64.2909 58.412 64.3577C58.4095 64.363 58.4069 64.3684 58.4043 64.3739C58.4042 64.374 58.4041 64.3741 58.4041 64.3742C58.3442 64.4981 58.2625 64.6675 58.4171 64.7206C58.4564 64.734 58.506 64.7254 58.5507 64.7177C58.5946 64.7101 58.6338 64.7033 58.6538 64.719C58.6766 64.7369 58.6745 64.7778 58.6724 64.8224C58.6694 64.8849 58.6661 64.9548 58.7302 64.9785C58.7346 64.9802 58.7394 64.9819 58.7442 64.9837C58.7903 65.0012 58.8585 65.0271 58.9611 65.0289C59.0799 65.1622 59.2017 65.2932 59.3257 65.4229C59.5324 65.6392 59.7441 65.8509 59.9566 66.0634C60.0601 66.1665 60.2319 66.2151 60.4393 66.1951C60.6469 66.1748 60.872 66.0884 61.0714 65.9507C61.2708 65.8129 61.4311 65.633 61.5236 65.4461C61.6159 65.2594 61.6315 65.0818 61.572 64.9487C61.4745 64.7317 61.3774 64.5152 61.2775 64.3003C61.2747 64.2873 61.2717 64.2745 61.2685 64.2618C61.2448 64.1675 61.2531 64.0592 61.2613 63.9508C61.2632 63.9259 61.2652 63.901 61.2667 63.8762ZM59.6385 64.5747C59.5119 64.4585 59.2679 64.506 59.1337 64.532C59.1313 64.5324 59.1288 64.5329 59.1263 64.5333C59.0945 64.5395 59.0644 64.5411 59.0291 64.5428C58.9449 64.547 58.8311 64.5526 58.5938 64.6267C58.5247 64.6239 58.4556 64.6225 58.3865 64.6225C57.6406 64.6225 56.8948 64.719 56.1489 64.8347C56.1394 64.8341 56.1299 64.8335 56.1202 64.8329C55.9331 64.8209 55.7011 64.806 55.5554 64.8484C55.37 64.9023 55.2442 64.9523 55.1408 64.9955C54.5484 65.0885 53.9559 65.1717 53.3635 65.206C53.1778 65.2168 52.9921 65.2227 52.8064 65.2227C52.6354 65.2227 52.4644 65.219 52.2934 65.2121C52.1938 65.1868 52.0991 65.1568 52.0114 65.1289C51.888 65.0898 51.7782 65.0551 51.6874 65.0438C51.4689 65.0165 51.2209 65.0596 51.0368 65.0916C51.0067 65.0968 50.9783 65.1018 50.952 65.1061C50.8058 65.0902 50.6595 65.0732 50.5133 65.0559C50.5035 65.0655 50.4937 65.0756 50.4837 65.0859C50.3589 65.2147 50.2055 65.213 49.964 65.2106C49.8588 65.2096 49.7369 65.2084 49.5934 65.2178C49.501 65.2238 49.4535 65.2748 49.4147 65.3164C49.4033 65.3287 49.3926 65.3402 49.3817 65.3494C49.3446 65.3811 49.3054 65.3468 49.2592 65.3064C49.1991 65.2539 49.1272 65.1908 49.032 65.2478C48.729 65.4293 48.5955 65.3062 48.4944 65.213C48.4648 65.1857 48.438 65.161 48.4105 65.1473C48.3213 65.1028 48.1943 65.1468 48.0983 65.2073C48.0221 65.2553 47.8698 65.2077 47.7543 65.1473C47.7107 65.1244 47.6516 65.1238 47.582 65.1233C47.51 65.1227 47.4268 65.1222 47.3376 65.0965C47.1125 65.0317 46.9928 65.0003 46.8966 64.9751C46.8692 64.968 46.8436 64.9614 46.8181 64.9546C46.7375 64.9331 46.6374 64.9154 46.5361 64.8975C46.4148 64.8761 46.2918 64.8544 46.1981 64.8253C45.9554 64.856 45.7127 64.894 45.47 64.9319C45.3454 64.9516 45.2258 65.0624 45.1376 65.245C45.0495 65.4278 45 65.6662 45 65.9132C45 66.1602 45.0495 66.3986 45.1376 66.5814C45.2258 66.764 45.3454 66.875 45.47 66.8947C45.7211 66.9339 45.9723 66.9731 46.2234 67.0043C46.5294 67.0424 46.8353 67.0686 47.1412 67.0686C47.3552 67.0686 47.5693 67.0627 47.7833 67.0521C47.8053 67.051 47.8273 67.0498 47.8494 67.0487C48.0292 67.1095 48.2086 67.1648 48.335 67.1845C48.4394 67.2008 48.5155 67.1683 48.5807 67.1406C48.6255 67.1215 48.6652 67.1046 48.7054 67.1073C48.7269 67.1087 48.7564 67.1124 48.7919 67.117C48.937 67.1354 49.1833 67.1666 49.4081 67.1073C49.5078 67.0809 49.6237 67.029 49.7343 66.9794C49.8924 66.9086 50.0399 66.8425 50.1143 66.8628C50.2451 66.8985 50.395 66.8683 50.5275 66.8416C50.6538 66.8161 50.7644 66.7938 50.8272 66.835C50.9023 66.8842 50.9664 66.8641 51.0616 66.8344C51.1276 66.8138 51.2087 66.7887 51.3188 66.7786C51.446 66.7669 51.536 66.7324 51.6125 66.7031C51.7201 66.6619 51.8011 66.6309 51.9218 66.6879C52.0559 66.7513 52.196 66.7916 52.3064 66.7716C52.3567 66.7625 52.4142 66.7647 52.474 66.767C52.5532 66.7701 52.6365 66.7733 52.7126 66.7506C52.7753 66.7318 52.8271 66.6839 52.8729 66.6414C52.8872 66.6282 52.901 66.6155 52.9142 66.6044C52.9642 66.605 53.0141 66.6059 53.064 66.6074C53.0721 66.6151 53.0806 66.6236 53.0895 66.6325C53.134 66.6767 53.1887 66.731 53.2565 66.7581C53.3637 66.8009 53.4578 66.7741 53.5571 66.7456C53.6344 66.7235 53.7148 66.7003 53.8069 66.7086C53.8698 66.7143 53.9414 66.7339 54.0123 66.7533C54.1177 66.7821 54.2218 66.8105 54.2941 66.7925C54.3212 66.7857 54.3444 66.7556 54.3675 66.7257C54.3676 66.7255 54.3677 66.7253 54.3678 66.7251C54.3694 66.7231 54.3709 66.7211 54.3725 66.7191C54.5486 66.742 54.7247 66.7673 54.9008 66.794C54.916 66.8017 54.9314 66.8093 54.9467 66.8168C55.0214 66.8536 55.0939 66.8892 55.1412 66.9399C55.1925 66.9948 55.3214 67.0267 55.4572 67.0604C55.5462 67.0824 55.6381 67.1052 55.7132 67.1356C55.7571 67.1534 55.7987 67.1224 55.8416 67.0904C55.8815 67.0606 55.9226 67.0299 55.9674 67.0375C55.9899 67.0413 56.0141 67.0541 56.04 67.0679C56.0628 67.08 56.0869 67.0928 56.1122 67.1007C56.1356 67.1079 56.1879 67.091 56.2548 67.0695C56.2962 67.0562 56.3432 67.0412 56.3926 67.0289C56.523 67.0482 56.6535 67.0668 56.7839 67.084C56.8111 67.1112 56.8348 67.1465 56.8535 67.1918C56.8669 67.2244 56.8783 67.2633 56.89 67.303C56.906 67.3571 56.9225 67.413 56.9453 67.4575C56.963 67.4924 56.984 67.5062 56.9981 67.4918C57.0047 67.485 57.0097 67.4723 57.0143 67.4608C57.0195 67.4477 57.0242 67.436 57.0299 67.4363C57.034 67.4366 57.0383 67.4459 57.0436 67.4572C57.052 67.4752 57.0629 67.4985 57.0796 67.4993C57.1416 67.5024 57.212 67.4949 57.281 67.4876C57.3577 67.4794 57.4327 67.4715 57.4925 67.4784C57.5594 67.4862 57.6548 67.4516 57.7504 67.4171C57.817 67.393 57.8838 67.369 57.941 67.3592C57.9972 67.3496 58.0556 67.3687 58.1122 67.3874C58.1801 67.4098 58.2454 67.4315 58.301 67.4011C58.3122 67.395 58.3261 67.3575 58.3436 67.3105C58.356 67.2772 58.3703 67.2392 58.3865 67.2041C58.4572 67.2041 58.5279 67.2026 58.5986 67.1997C58.6011 67.2048 58.6036 67.21 58.6062 67.2153C58.6062 67.2154 58.6063 67.2155 58.6063 67.2157C58.6644 67.3351 58.7438 67.4984 58.8554 67.401C58.8838 67.3762 58.9016 67.3304 58.9177 67.2893C58.9335 67.2488 58.9477 67.2126 58.9683 67.205C58.9918 67.1964 59.0195 67.2212 59.0497 67.2482C59.0922 67.2862 59.1396 67.3285 59.1871 67.2891C59.1904 67.2864 59.1939 67.2834 59.1975 67.2805C59.232 67.2524 59.283 67.2109 59.3338 67.1274C59.4845 67.1051 59.6352 67.079 59.7858 67.0505C60.037 67.003 60.2882 66.9488 60.5393 66.8947C60.6615 66.868 60.7787 66.7543 60.8651 66.5722C60.9515 66.3899 61 66.1556 61 65.9132C61 65.6709 60.9514 65.4367 60.8651 65.2544C60.7787 65.0723 60.6615 64.9586 60.5393 64.9319C60.3401 64.889 60.1408 64.8459 59.9415 64.8063C59.9311 64.8013 59.9206 64.7964 59.9102 64.7918C59.8325 64.7579 59.7604 64.6897 59.6883 64.6214C59.6717 64.6057 59.6551 64.59 59.6385 64.5747Z" fill="#D9D9D9"/>
</svg>
