<svg width="143" height="10" viewBox="0 0 143 10" fill="none" xmlns="http://www.w3.org/2000/svg">
<path d="M12.1686 6.53748C13.3183 6.35765 15.4562 6.28749 16.671 6.24688C16.6925 6.24612 16.7141 6.24536 16.7358 6.2446C17.016 6.23539 17.2847 6.22225 17.6054 6.20639C18.3643 6.16892 19.3812 6.11877 21.4938 6.07726C22.1386 6.03924 22.7066 6.00667 23.3381 5.97214C23.5765 5.9591 23.8174 5.94605 24.0608 5.93298C30.4806 5.58858 36.88 5.33404 43.3189 5.09545C43.4021 5.09033 43.4869 5.0851 43.5726 5.07982C45.2456 4.9768 47.2987 4.85031 48.6185 4.821C50.2696 4.78521 51.3892 4.77443 52.3301 4.76652C57.6101 4.57277 62.9011 4.36872 68.1884 4.11613C69.8528 4.03657 71.4992 3.95311 73.1617 3.86289C74.7055 3.77911 76.1997 3.69434 77.7422 3.6037C78.6331 3.53005 79.4642 3.45488 80.2485 3.38447C81.3483 3.28565 82.3348 3.19736 83.1359 3.14256C85.0819 3.00966 87.298 2.9326 88.9429 2.87544C89.2124 2.86606 89.4672 2.85721 89.7031 2.8487C91.0111 2.76189 92.3022 2.67487 93.6136 2.58638C93.7015 2.59128 93.7903 2.59654 93.8805 2.60198C95.0065 2.66985 96.3582 2.59489 98.5262 2.47494C99.4613 2.4232 100.544 2.36335 101.829 2.30303C102.657 2.26414 103.085 2.29205 103.431 2.315C103.533 2.32173 103.629 2.32801 103.726 2.33202C104.058 2.34577 104.405 2.29265 104.815 2.22988C105.347 2.14844 105.987 2.05062 106.842 2.06132C109.549 2.09632 110.738 1.90853 111.637 1.7665C111.899 1.72494 112.137 1.68733 112.38 1.66037C113.171 1.57297 114.307 1.55553 115.169 1.56935C115.856 1.58011 117.204 1.45944 118.233 1.34312C118.621 1.29916 119.149 1.27 119.771 1.23573C120.417 1.20014 121.155 1.15964 121.949 1.09093C123.953 0.917372 125.024 0.827814 125.878 0.756376C126.122 0.73597 126.349 0.71711 126.576 0.697976C127.294 0.637513 128.187 0.571386 129.092 0.50442C130.171 0.42446 131.266 0.343341 132.101 0.269058C134.273 0.18206 136.433 0.10302 138.604 0.0233128C139.716 -0.0172552 140.789 0.0355395 141.586 0.175278C142.383 0.315171 142.838 0.529205 142.851 0.775857C142.865 1.02251 142.435 1.28448 141.658 1.50965C140.881 1.73467 139.82 1.90333 138.71 1.98318C136.469 2.14395 134.237 2.30422 131.993 2.45711C129.269 2.64288 126.538 2.81716 123.808 2.96511C121.896 3.06873 119.991 3.1661 118.078 3.2592C117.881 3.26876 117.685 3.27821 117.489 3.28767C115.895 3.43495 114.286 3.57759 113.163 3.65824C112.233 3.72492 111.557 3.72908 110.97 3.73309C110.568 3.73577 110.212 3.73812 109.853 3.76024C109.661 3.77212 109.398 3.79012 109.082 3.81179C107.796 3.89994 105.587 4.051 103.586 4.1C102.702 4.12157 101.653 4.12646 100.666 4.13033C99.2549 4.13589 97.9355 4.14127 97.2694 4.19771C96.0988 4.29689 94.7801 4.33818 93.5834 4.37632C92.4504 4.41224 91.466 4.44334 90.9102 4.51469C90.2503 4.59974 89.6672 4.61128 88.8157 4.62773C88.2244 4.63919 87.4997 4.65331 86.5222 4.6962C85.387 4.74608 84.5747 4.75563 83.8928 4.76327C82.9301 4.7742 82.2181 4.78177 81.1338 4.89773C79.9331 5.02633 78.702 5.13351 77.7099 5.16729C77.2578 5.18268 76.7429 5.21284 76.2092 5.24413C75.5016 5.28561 74.7669 5.32867 74.087 5.34278C73.5219 5.35468 73.0552 5.33199 72.6432 5.31185C72.5147 5.30556 72.3914 5.29959 72.2723 5.29493C71.827 5.31971 71.3832 5.3447 70.941 5.37012C70.8698 5.38171 70.795 5.39433 70.717 5.4074C70.3307 5.47269 69.8316 5.55415 69.2283 5.614C68.2697 5.70891 67.4351 5.72737 66.5533 5.74674C65.8554 5.76244 65.1331 5.77849 64.3134 5.8313C63.7509 5.86751 63.134 5.92063 62.4883 5.97515C61.5411 6.05546 60.6163 6.13411 59.9755 6.15084C59.7351 6.15713 59.5291 6.13816 59.3226 6.11937C59.3217 6.11924 59.3208 6.11911 59.3198 6.11897C59.3056 6.11771 59.2913 6.1165 59.2771 6.11524C57.6793 6.225 56.1564 6.33307 54.5583 6.44659C54.4221 6.46174 54.2846 6.47685 54.1487 6.49176C53.4842 6.56465 52.8451 6.6351 52.4318 6.70829C51.9703 6.78836 50.8096 6.88341 49.613 6.98216C48.8369 7.04642 47.9887 7.11534 47.3271 7.18181C46.9372 7.22083 46.5667 7.2099 46.1878 7.19846C45.8407 7.18744 45.4568 7.17764 45.0562 7.20701C44.8543 7.2218 44.6375 7.24646 44.4069 7.27277C44.204 7.29592 43.9901 7.3204 43.7667 7.34042C43.556 7.35916 43.1061 7.36671 42.4997 7.37817C42.1242 7.38529 41.7001 7.39333 41.2591 7.40496C40.1086 7.48694 38.9289 7.56972 37.7721 7.64997C37.5325 7.69026 37.3265 7.73685 37.1648 7.79105C37.0485 7.82996 36.9519 7.87415 36.8496 7.91953C36.7072 7.98145 36.5601 8.04543 36.3568 8.10114C36.1978 8.14468 36.0097 8.16882 35.8825 8.16127C35.8232 8.15774 35.7773 8.14751 35.7357 8.13827C35.6881 8.12768 35.6456 8.11827 35.5946 8.12138C35.5578 8.12365 35.52 8.13505 35.4736 8.14888C35.3996 8.17096 35.3032 8.19951 35.1555 8.20839C34.6051 8.24145 33.9916 8.26743 33.3598 8.2945C32.6674 8.32404 32.0043 8.35226 31.4837 8.3876C30.8758 8.42854 30.0109 8.44105 29.1746 8.45211C28.59 8.4599 27.9647 8.47003 27.4609 8.4877C26.9598 8.50541 26.4631 8.55171 25.9394 8.59903C25.325 8.65505 24.7493 8.70821 24.2665 8.7042C24.2492 8.70405 24.2311 8.70296 24.2121 8.70104C24.1189 8.69246 24.0072 8.66628 23.8739 8.63489C23.759 8.60785 23.6274 8.57694 23.4791 8.54994C22.8323 8.58531 22.2542 8.61539 21.5907 8.64886C21.5683 8.65518 21.5453 8.66163 21.5223 8.66819C21.522 8.66833 21.5216 8.66847 21.5212 8.66861C20.9897 8.81731 20.3457 9.01614 19.3069 8.9755C19.0509 8.96473 18.8906 8.9277 18.7465 8.89437C18.6052 8.86162 18.4795 8.83227 18.2999 8.83451C18.1005 8.83682 17.8344 8.87628 17.5664 8.91804C17.1841 8.977 16.7746 9.04191 16.3544 9.0255C16.3243 9.02445 16.292 9.02327 16.2585 9.02215C15.9401 9.01155 15.4776 8.99541 15.0315 8.93631C13.6664 8.98909 12.3564 9.03516 10.991 9.08215C8.77812 9.15706 6.4954 9.2295 4.26556 9.30179C3.18799 9.33632 2.12905 9.28333 1.35151 9.14826C0.564765 9.01271 0.141639 8.81083 0.102879 8.57818C0.0731689 8.33032 0.511335 8.06071 1.27137 7.83287C2.031 7.60421 3.07858 7.43001 4.15426 7.3422C5.93093 7.19834 7.72114 7.05555 9.48089 6.91818C9.57171 6.9081 9.66382 6.89812 9.75644 6.88841C10.471 6.81479 11.0693 6.71337 11.7377 6.60804C11.8793 6.58451 12.0228 6.56083 12.1686 6.53748Z" fill="white"/>
</svg>
