<svg width="99" height="6" viewBox="0 0 99 6" fill="none" xmlns="http://www.w3.org/2000/svg">
<path d="M90.4758 0.672856C89.6709 0.581765 88.1919 0.67579 87.3519 0.728467C87.337 0.729367 87.3221 0.730267 87.3071 0.731169C87.1133 0.743477 86.9271 0.750979 86.7049 0.759774C86.1793 0.780618 85.4749 0.808611 84.0155 0.929249C83.5688 0.940778 83.1746 0.951889 82.7369 0.96589C82.5726 0.971148 82.4065 0.976582 82.2388 0.98219C77.7887 1.1312 73.359 1.36826 68.9033 1.62424C68.8456 1.62551 68.7868 1.6268 68.7273 1.62811C67.5669 1.65372 66.1431 1.68507 65.2312 1.75707C64.0908 1.84799 63.3181 1.92312 62.6692 1.98737C59.0163 2.19914 55.3551 2.40147 51.6931 2.55514C50.5403 2.60346 49.3997 2.64652 48.2474 2.68408C47.1775 2.71895 46.1417 2.74903 45.0721 2.77697C44.4529 2.77187 43.8748 2.76068 43.3293 2.75064C42.5643 2.73647 41.8782 2.72411 41.3222 2.73092C39.9715 2.74767 38.4387 2.84079 37.3009 2.90996C37.1145 2.92127 36.9383 2.93198 36.7751 2.94159C35.8675 2.95535 34.9714 2.96763 34.0614 2.97998C34.0011 2.99161 33.9403 3.00366 33.8785 3.016C33.1072 3.16999 32.1702 3.19893 30.6675 3.24561C30.0194 3.26574 29.2688 3.28912 28.3792 3.3275C27.8056 3.35223 27.5126 3.41288 27.2757 3.46229C27.2058 3.47683 27.1402 3.49043 27.0737 3.50187C26.8457 3.54104 26.603 3.51468 26.3158 3.48357C25.9432 3.44321 25.4956 3.39474 24.9071 3.47097C23.0432 3.71348 22.2105 3.61748 21.581 3.54483C21.3977 3.52348 21.2313 3.50421 21.0612 3.49605C20.51 3.46957 19.726 3.53927 19.1327 3.61916C18.6598 3.68259 17.7222 3.66567 17.0051 3.6286C16.7343 3.61457 16.3688 3.62594 15.9375 3.63949C15.4897 3.65356 14.9784 3.66976 14.4265 3.66213C13.033 3.64281 12.288 3.63573 11.6949 3.62995C11.5253 3.62832 11.3673 3.62696 11.2093 3.62531C10.7102 3.62009 10.0905 3.62262 9.46197 3.62526C8.71212 3.62836 7.95164 3.63148 7.3712 3.62143C5.86778 3.70129 4.37343 3.78814 2.87163 3.87515C2.10234 3.91999 1.36636 4.0549 0.827047 4.25528C0.287815 4.4558 -0.0108467 4.70404 -0.00281718 4.95093C0.00523223 5.19782 0.319555 5.42601 0.870712 5.59089C1.42196 5.75562 2.16519 5.84236 2.93576 5.83685C4.49217 5.8252 6.04186 5.81379 7.59908 5.79414C9.48992 5.7704 11.3844 5.7347 13.2761 5.67287C14.6011 5.62956 15.921 5.58052 17.2462 5.52662C17.3824 5.52108 17.5185 5.51543 17.6545 5.50979C18.763 5.53442 19.8822 5.5532 20.6622 5.54744C21.3075 5.54264 21.7739 5.49492 22.1788 5.45392C22.4563 5.42573 22.7016 5.4008 22.9502 5.39537C23.0836 5.39245 23.266 5.39025 23.4856 5.38758C24.3782 5.37683 25.9115 5.358 27.2936 5.25347C27.9045 5.20716 28.6279 5.13159 29.3084 5.05978C30.2816 4.95708 31.1914 4.86128 31.6544 4.86646C32.4683 4.87555 33.3801 4.81559 34.2075 4.76184C34.991 4.71076 35.6717 4.66627 36.0598 4.69477C36.5206 4.72895 36.9233 4.69574 37.5113 4.64685C37.9197 4.61291 38.4202 4.57143 39.0969 4.53922C39.8829 4.50189 40.4435 4.44912 40.914 4.40445C41.5783 4.34152 42.0696 4.29447 42.8251 4.3269C43.6617 4.36302 44.5178 4.37545 45.2039 4.33304C45.5166 4.31372 45.8736 4.3043 46.2436 4.29456C46.7343 4.28164 47.2438 4.26822 47.7133 4.23016C48.1036 4.19868 48.4237 4.14027 48.7063 4.08861C48.7945 4.07249 48.879 4.05709 48.9608 4.0433C49.2694 4.03386 49.5771 4.02473 49.8837 4.01616C49.9335 4.02226 49.986 4.0291 50.0407 4.03615C50.3114 4.07161 50.6611 4.11454 51.0812 4.12793C51.7486 4.14902 52.3252 4.10341 52.9342 4.05511C53.4164 4.01724 53.9154 3.97786 54.4841 3.96764C54.8743 3.96059 55.3033 3.96624 55.7521 3.97107C56.4105 3.97849 57.0535 3.98597 57.4963 3.95352C57.6625 3.94134 57.8032 3.90664 57.9441 3.87208C57.9447 3.87187 57.9454 3.87167 57.946 3.87147C57.9557 3.86912 57.9655 3.86681 57.9752 3.86447C59.0842 3.85136 60.1414 3.84229 61.2509 3.8329C61.3459 3.83755 61.4416 3.84208 61.5364 3.84652C61.9995 3.86821 62.445 3.88943 62.7349 3.93069C63.0585 3.97511 63.8653 3.98085 64.697 3.98753C65.2363 3.99207 65.8259 3.99572 66.2865 4.01124C66.558 4.02024 66.8126 3.98094 67.073 3.94048C67.3115 3.90288 67.5753 3.86367 67.8535 3.86222C67.9937 3.86148 68.1449 3.86944 68.3056 3.87798C68.4472 3.8855 68.5963 3.89349 68.7517 3.89632C68.8982 3.89885 69.209 3.87187 69.6275 3.83679C69.8869 3.8151 70.1797 3.7906 70.4845 3.76837C71.2834 3.76185 72.1021 3.75391 72.9052 3.74519C73.0731 3.76698 73.2184 3.79761 73.3336 3.83925C73.4165 3.86911 73.4863 3.90575 73.5598 3.94314C73.6622 3.99394 73.7681 4.04644 73.9121 4.08638C74.0248 4.11758 74.1561 4.12722 74.2433 4.10994C74.2839 4.10188 74.3148 4.08817 74.3428 4.07576C74.3749 4.06156 74.4035 4.04892 74.4389 4.04811C74.4644 4.04755 74.4913 4.05601 74.5242 4.06624C74.5768 4.08257 74.6452 4.10364 74.7477 4.10116C75.1294 4.09191 75.5539 4.07076 75.9913 4.0493C76.4706 4.02566 76.9297 4.00292 77.291 3.99823C77.7127 3.99243 78.3099 3.93857 78.8871 3.88547C79.2903 3.84841 79.7222 3.81056 80.0707 3.78952C80.4174 3.76875 80.7627 3.77682 81.1271 3.78383C81.5545 3.79255 81.9551 3.80139 82.2876 3.76037C82.3004 3.75879 82.3136 3.75608 82.3275 3.75236C82.3906 3.73634 82.4649 3.70208 82.5533 3.66118C82.6305 3.62542 82.7191 3.58452 82.8195 3.54622C83.2678 3.53188 83.6686 3.51753 84.128 3.50002C84.1438 3.50461 84.1601 3.50927 84.1764 3.51404C84.1767 3.51416 84.1769 3.51427 84.1772 3.51438C84.5541 3.62183 85.0114 3.77066 85.7248 3.65048C85.9006 3.62011 86.0085 3.57091 86.1055 3.52663C86.2006 3.48315 86.2852 3.44426 86.4092 3.43272C86.5464 3.41974 86.7328 3.43867 86.9205 3.45973C87.188 3.48918 87.4751 3.52248 87.7632 3.47391C87.7839 3.47056 87.806 3.4669 87.8291 3.46321C88.0478 3.42823 88.3655 3.37668 88.6689 3.28355C89.6133 3.23148 90.5198 3.17694 91.4639 3.11908C92.9939 3.02406 94.5726 2.9212 96.114 2.82226C96.8591 2.77403 97.5842 2.64003 98.1107 2.44574C98.6456 2.25042 98.9096 2.01613 98.9398 1.78179C98.9548 1.53218 98.617 1.29702 98.0803 1.12826C97.5393 0.958637 96.8054 0.865346 96.0572 0.860336C94.8219 0.853213 93.5779 0.84818 92.3551 0.846216C92.2918 0.843134 92.2276 0.840246 92.1631 0.837675C91.6652 0.819088 91.2457 0.763883 90.7778 0.710143C90.6786 0.697542 90.578 0.684953 90.4758 0.672856Z" fill="white"/>
</svg>
