<svg width="49" height="48" viewBox="0 0 49 48" fill="none" xmlns="http://www.w3.org/2000/svg">
<path opacity="0.3" d="M24.94 39.7C24.58 40.06 23.94 40.12 23.52 39.7C23.3326 39.5112 23.2275 39.256 23.2275 38.99C23.2275 38.724 23.3326 38.4688 23.52 38.28L30.3 31.5L27.48 28.68L20.7 35.46C20.32 35.86 19.68 35.84 19.28 35.46C19.0926 35.2712 18.9875 35.016 18.9875 34.75C18.9875 34.484 19.0926 34.2288 19.28 34.04L26.06 27.26L23.24 24.44L16.46 31.22C16.1 31.58 15.46 31.64 15.04 31.22C14.8569 31.029 14.7546 30.7746 14.7546 30.51C14.7546 30.2454 14.8569 29.991 15.04 29.8L21.82 23.02L18.98 20.2L12.2 26.98C11.84 27.34 11.2 27.4 10.78 26.98C10.5969 26.789 10.4946 26.5346 10.4946 26.27C10.4946 26.0054 10.5969 25.751 10.78 25.56L19.54 16.8L23.28 20.52C25.18 22.42 28.46 22.4 30.36 20.52C32.32 18.56 32.32 15.4 30.36 13.44L26.64 9.71999L27.2 9.15999C28.76 7.59999 31.3 7.59999 32.86 9.15999L41.34 17.64C42.9 19.2 42.9 21.74 41.34 23.3L24.94 39.7Z" fill="#EC1C24"/>
<path d="M24.94 39.7C24.58 40.06 23.94 40.12 23.52 39.7C23.3326 39.5112 23.2275 39.256 23.2275 38.99C23.2275 38.724 23.3326 38.4688 23.52 38.28L30.3 31.5L27.48 28.68L20.7 35.46C20.32 35.86 19.68 35.84 19.28 35.46C19.0926 35.2712 18.9875 35.016 18.9875 34.75C18.9875 34.484 19.0926 34.2288 19.28 34.04L26.06 27.26L23.24 24.44L16.46 31.22C16.1 31.58 15.46 31.64 15.04 31.22C14.8569 31.029 14.7547 30.7746 14.7547 30.51C14.7547 30.2454 14.8569 29.991 15.04 29.8L21.82 23.02L18.98 20.2L12.2 26.98C11.84 27.34 11.2 27.4 10.78 26.98C10.5969 26.789 10.4947 26.5346 10.4947 26.27C10.4947 26.0054 10.5969 25.751 10.78 25.56L19.54 16.8L23.28 20.52C25.18 22.42 28.46 22.4 30.36 20.52C32.32 18.56 32.32 15.4 30.36 13.44L26.64 9.71998L27.2 9.15998C28.76 7.59998 31.3 7.59998 32.86 9.15998L41.34 17.64C42.9 19.2 42.9 21.74 41.34 23.3L24.94 39.7ZM44.16 26.14C45.6573 24.6368 46.498 22.6016 46.498 20.48C46.498 18.3583 45.6573 16.3231 44.16 14.82L35.68 6.33998C34.1769 4.84266 32.1417 4.00195 30.02 4.00195C27.8983 4.00195 25.8631 4.84266 24.36 6.33998L23.8 6.89998L23.24 6.33998C21.7369 4.84266 19.7017 4.00195 17.58 4.00195C15.4583 4.00195 13.4231 4.84266 11.92 6.33998L4.84 13.42C3.48626 14.7679 2.66101 16.5568 2.51421 18.4616C2.36741 20.3663 2.9088 22.2605 4.04 23.8L6.94 20.9C6.55338 20.1451 6.41671 19.2869 6.54973 18.4493C6.68274 17.6116 7.07855 16.838 7.68 16.24L14.76 9.15998C16.32 7.59998 18.86 7.59998 20.42 9.15998L27.54 16.28C27.9 16.64 27.96 17.28 27.54 17.7C27.12 18.12 26.48 18.06 26.12 17.7L19.54 11.14L7.94 22.72C5.98 24.66 5.98 27.84 7.94 29.8C8.72 30.58 9.72 31.06 10.78 31.2C10.9207 32.2752 11.4127 33.2738 12.1794 34.0405C12.9462 34.8073 13.9448 35.2993 15.02 35.44C15.1607 36.5152 15.6527 37.5138 16.4194 38.2805C17.1862 39.0473 18.1848 39.5393 19.26 39.68C19.4 40.76 19.88 41.74 20.66 42.52C21.6 43.46 22.86 43.98 24.2 43.98C25.54 43.98 26.8 43.46 27.74 42.52L44.16 26.14Z" fill="#EC1C24"/>
</svg>
