<svg width="48" height="48" viewBox="0 0 48 48" fill="none" xmlns="http://www.w3.org/2000/svg">
<path d="M11.34 19.828L17.464 11.542C21.422 6.18596 23.402 3.50796 25.248 4.07396C27.094 4.63996 27.094 7.92396 27.094 14.494V15.114C27.094 17.484 27.094 18.668 27.852 19.41L27.892 19.45C28.666 20.176 29.898 20.176 32.364 20.176C36.804 20.176 39.022 20.176 39.772 21.522L39.808 21.59C40.516 22.956 39.23 24.696 36.66 28.17L30.536 36.458C26.576 41.814 24.598 44.492 22.752 43.926C20.906 43.36 20.906 40.076 20.906 33.506V32.886C20.906 30.516 20.906 29.332 20.148 28.59L20.108 28.55C19.334 27.824 18.102 27.824 15.636 27.824C11.196 27.824 8.97798 27.824 8.22998 26.478L8.19198 26.41C7.48398 25.044 8.76998 23.306 11.34 19.83" fill="#EC1C24"/>
</svg>
