<svg width="48" height="49" viewBox="0 0 48 49" fill="none" xmlns="http://www.w3.org/2000/svg">
<path d="M24 35.6306C22.7932 35.6308 21.6307 35.1765 20.7438 34.3582C19.857 33.5398 19.3109 32.4175 19.2143 31.2146C16.0132 30.0815 13.3153 27.8539 11.5968 24.9251C9.87834 21.9962 9.24984 18.5544 9.82225 15.2072C10.3947 11.86 12.1312 8.8227 14.7253 6.63135C17.3193 4.43999 20.6042 3.23554 24 3.23059C27.6117 3.23007 31.0918 4.5868 33.7501 7.03177C36.4085 9.47674 38.051 12.8314 38.3519 16.4306C38.362 16.5867 38.3394 16.7432 38.2857 16.8901C38.232 17.0371 38.1483 17.1712 38.04 17.2841C37.9317 17.3969 37.801 17.486 37.6564 17.5457C37.5118 17.6053 37.3563 17.6342 37.1999 17.6306C36.8785 17.6225 36.5715 17.4953 36.3386 17.2735C36.1058 17.0517 35.9637 16.7513 35.94 16.4306C35.7262 14.3086 34.9508 12.2819 33.6935 10.5592C32.4362 8.83642 30.7426 7.47989 28.7868 6.6292C26.8311 5.77851 24.684 5.46442 22.5665 5.71926C20.4491 5.97409 18.4378 6.78865 16.7397 8.07907C15.0417 9.36949 13.7182 11.0891 12.9056 13.061C12.093 15.0328 11.8205 17.1856 12.1164 19.2978C12.4122 21.4099 13.2656 23.405 14.5887 25.0777C15.9117 26.7504 17.6567 28.0403 19.644 28.8146C20.0055 28.0333 20.5706 27.3636 21.28 26.8757C21.9893 26.3878 22.8168 26.0997 23.6758 26.0416C24.5348 25.9834 25.3936 26.1573 26.1622 26.5451C26.9308 26.9329 27.581 27.5203 28.0446 28.2458C28.5083 28.9712 28.7682 29.808 28.7973 30.6684C28.8264 31.5289 28.6235 32.3813 28.21 33.1364C27.7964 33.8915 27.1874 34.5214 26.4467 34.9603C25.706 35.3991 24.8609 35.6306 24 35.6306ZM12.0216 29.6306H12.24C13.176 30.545 14.2152 31.3514 15.3408 32.0306H12.0216C10.6752 32.0306 9.59995 33.1034 9.59995 34.4306C9.59995 37.5722 11.0928 39.9122 13.6152 41.5178C16.1832 43.157 19.836 44.0306 24 44.0306C28.1639 44.0306 31.8167 43.157 34.3847 41.5178C36.9047 39.9098 38.4 37.5746 38.4 34.4306C38.4 33.7941 38.1471 33.1836 37.697 32.7335C37.2469 32.2834 36.6365 32.0306 36 32.0306H31.1015C31.2358 31.2362 31.2358 30.425 31.1015 29.6306H36C37.273 29.6306 38.4939 30.1363 39.3941 31.0365C40.2942 31.9367 40.7999 33.1576 40.7999 34.4306C40.7999 38.489 38.8007 41.549 35.6759 43.5434C32.5991 45.5042 28.452 46.4306 24 46.4306C19.548 46.4306 15.4008 45.5042 12.324 43.5434C9.19915 41.5514 7.19995 38.4866 7.19995 34.4306C7.19995 31.7594 9.36715 29.6306 12.0216 29.6306ZM33.5999 17.6306C33.6005 19.2545 33.189 20.8521 32.4041 22.2737C31.6192 23.6953 30.4865 24.8946 29.1119 25.7594C28.4712 25.1133 27.7139 24.5946 26.8799 24.2306C28.396 23.5689 29.638 22.4055 30.3971 20.9358C31.1561 19.4661 31.386 17.7799 31.0481 16.1607C30.7101 14.5414 29.8249 13.0879 28.5413 12.0446C27.2578 11.0012 25.6541 10.4317 24 10.4317C22.3458 10.4317 20.7421 11.0012 19.4586 12.0446C18.175 13.0879 17.2898 14.5414 16.9518 16.1607C16.6139 17.7799 16.8438 19.4661 17.6028 20.9358C18.3619 22.4055 19.6039 23.5689 21.12 24.2306C20.28 24.5978 19.524 25.1186 18.8879 25.7594C17.065 24.613 15.6804 22.8869 14.9568 20.8586C14.5876 19.8224 14.3993 18.7305 14.4 17.6306C14.4 15.0845 15.4114 12.6427 17.2117 10.8424C19.0121 9.04202 21.4539 8.03059 24 8.03059C26.546 8.03059 28.9878 9.04202 30.7882 10.8424C32.5885 12.6427 33.5999 15.0845 33.5999 17.6306Z" fill="white"/>
</svg>
