<svg width="30" height="24" viewBox="0 0 30 24" fill="none" xmlns="http://www.w3.org/2000/svg">
<path d="M1.66675 2.99723C1.66675 2.64361 1.80722 2.30447 2.05727 2.05442C2.30732 1.80437 2.64646 1.66389 3.00008 1.66389H27.0001C27.3537 1.66389 27.6928 1.80437 27.9429 2.05442C28.1929 2.30447 28.3334 2.64361 28.3334 2.99723V21.6639C28.3334 22.0175 28.1929 22.3567 27.9429 22.6067C27.6928 22.8568 27.3537 22.9972 27.0001 22.9972H3.00008C2.64646 22.9972 2.30732 22.8568 2.05727 22.6067C1.80722 22.3567 1.66675 22.0175 1.66675 21.6639V2.99723Z" stroke="#EC1C24" stroke-width="2" stroke-linejoin="round"/>
<path d="M23.0001 1.66389V22.9972M7.00008 1.66389V22.9972M24.3334 8.33056H28.3334M24.3334 16.3306H28.3334M1.66675 8.33056H5.66675M1.66675 6.99723V9.66389M5.00008 1.66389H9.00008M5.00008 22.9972H9.00008M21.0001 1.66389H25.0001M21.0001 22.9972H25.0001M1.66675 16.3306H5.66675M1.66675 14.9972V17.6639M28.3334 14.9972V17.6639M28.3334 6.99723V9.66389" stroke="#EC1C24" stroke-width="2" stroke-linecap="round" stroke-linejoin="round"/>
<path d="M13.0001 8.99722L18.3335 12.3306L13.0001 15.6639V8.99722Z" stroke="#EC1C24" stroke-width="2" stroke-linejoin="round"/>
</svg>
