<svg xmlns="http://www.w3.org/2000/svg" width="2663" height="624" viewBox="0 0 2663 624" version="1.1"><path d="M 2599.265 2.542 C 2586.279 6.039, 2574.243 15.630, 2568.749 26.858 C 2565.742 33.006, 2565.500 34.245, 2565.500 43.521 C 2565.500 52.868, 2565.725 54, 2568.851 60.350 C 2576.612 76.113, 2595.020 86.965, 2614 86.965 C 2632.633 86.965, 2651.497 75.893, 2659.069 60.512 C 2670.412 37.471, 2655.717 9.631, 2628.465 2.533 C 2621.188 0.637, 2606.319 0.642, 2599.265 2.542 M 2602.929 15.303 C 2596.479 17.133, 2590.056 21.131, 2585.330 26.258 C 2569.405 43.535, 2581.874 69.276, 2607.892 72.834 C 2639.760 77.192, 2661.690 47.555, 2642.440 26.144 C 2635.585 18.520, 2627.429 14.853, 2616.277 14.380 C 2610.959 14.154, 2605.699 14.518, 2602.929 15.303" stroke="none" fill="" fill-rule="evenodd"/><path d="M 2600.500 28.179 C 2592.139 31.263, 2588.537 36.922, 2589.190 45.949 C 2589.680 52.728, 2592.305 56.931, 2597.730 59.627 C 2603.180 62.335, 2622.820 62.335, 2628.270 59.627 C 2632.412 57.568, 2635.348 53.990, 2636.373 49.750 L 2637.038 47 2629.848 47 C 2624.430 47, 2622.185 47.427, 2620.742 48.733 C 2617.972 51.240, 2607.918 51.141, 2605.087 48.578 C 2603.939 47.540, 2603 45.705, 2603 44.500 C 2603 43.295, 2603.939 41.460, 2605.087 40.422 C 2607.918 37.859, 2617.972 37.760, 2620.742 40.267 C 2622.185 41.573, 2624.430 42, 2629.848 42 L 2637.038 42 2636.373 39.250 C 2635.347 35.007, 2632.410 31.430, 2628.270 29.382 C 2623.801 27.172, 2605.392 26.374, 2600.500 28.179 M 182.500 102.020 C 107.030 107.080, 56.510 123.103, 28.265 150.936 C 19.676 159.399, 14.110 167.323, 8.984 178.381 C 4.462 188.135, 2.373 196.234, 1.029 209.212 C -2.548 243.747, 12.091 268.136, 46.500 284.969 C 81.904 302.287, 125.402 309.627, 221.500 314.496 C 286.379 317.784, 306.161 320.677, 314.034 328.032 C 316.940 330.746, 317.207 331.472, 316.760 335.439 C 315.663 345.171, 306.877 352.713, 290.587 357.909 C 258.138 368.257, 195.035 367.945, 168 357.303 C 157.957 353.350, 150.782 348.591, 144.109 341.457 C 140.749 337.865, 138 334.493, 138 333.963 C 138 333.355, 112.636 333, 69.139 333 L 0.277 333 1.530 340.826 C 6.656 372.839, 22.362 399.313, 46.410 416.473 C 66.023 430.469, 97.103 441.329, 132.238 446.463 C 175.803 452.830, 252.048 453.710, 300.500 448.406 C 380.545 439.643, 429.598 414.147, 447.045 372.238 C 451.650 361.175, 453.971 348.695, 453.987 334.910 C 454.010 314.594, 449.274 301.850, 436.697 288.383 C 420.148 270.662, 393.389 258.478, 353.500 250.501 C 322.750 244.351, 294.391 241.560, 226.500 237.999 C 165.062 234.778, 148.465 232.220, 140.250 224.709 C 135.769 220.612, 138.291 210.313, 145.206 204.467 C 154.021 197.015, 172.900 191.281, 196.147 188.995 C 212.969 187.341, 255.405 188.167, 267 190.374 C 289.566 194.668, 307.575 204.485, 315.037 216.559 L 317.163 220 385.582 220 L 454 220 453.991 217.250 C 453.986 215.738, 452.883 209.657, 451.540 203.737 C 442.202 162.570, 417.359 135.040, 375.500 119.469 C 354.451 111.639, 328.992 106.580, 295 103.472 C 274.504 101.598, 202.629 100.671, 182.500 102.020 M 437 110.526 C 437 110.822, 469.831 185.862, 509.959 277.282 L 582.917 443.500 661.012 443.500 L 739.107 443.500 775.216 361.213 C 795.076 315.955, 811.628 279.280, 811.997 279.713 C 812.367 280.146, 828.791 317.290, 848.496 362.256 L 884.322 444.012 962.296 443.756 L 1040.270 443.500 1113.134 277.500 C 1153.209 186.200, 1185.998 111.160, 1185.999 110.744 C 1185.999 110.328, 1152.874 110.103, 1112.387 110.244 L 1038.775 110.500 1000.503 214.900 C 970.607 296.454, 962.025 318.885, 961.289 317.400 C 960.771 316.355, 943.506 269.265, 922.923 212.756 L 885.500 110.011 811.562 110.256 L 737.623 110.500 699.562 214.189 C 678.628 271.219, 661.275 318.092, 661 318.352 C 660.725 318.612, 643.384 271.951, 622.464 214.662 L 584.427 110.500 510.714 110.244 C 470.171 110.103, 437 110.229, 437 110.526 M 1196 110.492 C 1196 110.762, 1238.075 160.374, 1289.500 220.742 L 1382.999 330.500 1383 387.250 L 1383 444 1448.500 444 L 1514 444 1514.048 386.750 L 1514.096 329.500 1603.642 224.500 C 1652.892 166.750, 1694.988 117.363, 1697.187 114.750 L 1701.186 110 1623.284 110 L 1545.381 110 1496.781 169.448 L 1448.181 228.896 1399.841 169.492 L 1351.500 110.089 1273.750 110.044 C 1230.987 110.020, 1196 110.221, 1196 110.492 M 1710 277 L 1710 444 1775.500 444 L 1841 444 1841 403.500 L 1841 363 1940.250 362.997 C 2006.467 362.995, 2042.495 362.627, 2048.500 361.891 C 2100.837 355.478, 2145.119 314.351, 2156.055 262 C 2158.844 248.651, 2159.120 225.858, 2156.649 212.957 C 2148.106 168.344, 2115.023 130.361, 2072.218 116.020 C 2053.445 109.730, 2062.161 110, 1877.869 110 L 1710 110 1710 277 M 2193 277 L 2193 444 2349.901 444 C 2502.453 444, 2507.127 443.944, 2518.549 441.992 C 2567.061 433.698, 2608.498 402.212, 2631.484 356.177 C 2652.129 314.831, 2655.459 263.997, 2640.458 219.168 C 2621.500 162.513, 2575.137 121.533, 2519.151 111.944 C 2508.239 110.075, 2501.728 110, 2350.401 110 L 2193 110 2193 277 M 1967 197.417 L 1967 208 1886 208 L 1805 208 1805 236 L 1805 264 1886 264 L 1967 264 1967 274.500 C 1967 280.275, 1967.296 285, 1967.657 285 C 1968.781 285, 2061.001 236.632, 2060.988 236.050 C 2060.977 235.576, 1970.578 188.072, 1967.963 187.167 C 1967.385 186.967, 1967 191.070, 1967 197.417 M 2311 275 L 2311 332 2388.750 331.987 C 2460.689 331.975, 2467.173 331.834, 2475.500 330.110 C 2506.361 323.719, 2527.116 305.854, 2531.175 282.187 C 2536.389 251.777, 2508.816 224.024, 2468.500 219.104 C 2462.708 218.397, 2433.034 218.005, 2385.250 218.003 L 2311 218 2311 275 M 2015.222 510.047 C 2008.165 513.573, 2003.688 518.255, 2000.304 525.648 L 1997.905 530.887 1998.203 566.693 C 1998.494 601.820, 1998.543 602.581, 2000.791 606.791 C 2003.896 612.606, 2009.639 618.154, 2015.577 621.077 C 2020.162 623.334, 2021.788 623.523, 2039.250 623.828 L 2058 624.156 2058 610.578 L 2058 597 2047.016 597 C 2036.294 597, 2035.953 596.930, 2032.766 594.084 L 2029.500 591.168 2029.179 568.368 C 2029.003 555.828, 2029.126 544.141, 2029.453 542.396 C 2029.781 540.652, 2031.210 538.063, 2032.629 536.644 C 2035.051 534.221, 2035.891 534.046, 2046.355 533.782 L 2057.500 533.500 2057.779 520.250 L 2058.058 507 2039.689 507 L 2021.319 507 2015.222 510.047 M 2590 520.500 L 2590 534 2601.077 534 C 2611.987 534, 2612.198 534.044, 2615.077 536.923 L 2618 539.846 2618 564.473 C 2618 591.225, 2617.604 593.492, 2612.528 595.805 C 2611.056 596.476, 2605.540 597, 2599.953 597 L 2590 597 2590 610.578 L 2590 624.156 2608.750 623.826 C 2626.824 623.507, 2627.683 623.399, 2632.563 620.825 C 2638.614 617.635, 2644.431 611.462, 2647.363 605.122 C 2649.417 600.679, 2649.500 599.141, 2649.500 565.500 C 2649.500 530.772, 2649.482 530.459, 2647.118 525.230 C 2644.127 518.612, 2635.772 510.792, 2629.357 508.606 C 2625.743 507.375, 2620.604 507, 2607.322 507 L 2590 507 2590 520.500 M 2069 562.500 L 2069 597 2082.477 597 L 2095.954 597 2096.227 579.467 L 2096.500 561.934 2109.500 579.430 L 2122.500 596.925 2129.272 596.963 L 2136.043 597 2148.772 579.785 L 2161.500 562.571 2162 579.535 L 2162.500 596.500 2176.250 596.778 L 2190 597.056 2190 562.528 L 2190 528 2173.033 528 L 2156.067 528 2143.889 543.250 C 2137.191 551.638, 2131.140 559.120, 2130.442 559.878 C 2129.391 561.019, 2126.916 558.409, 2115.982 544.628 L 2102.790 528 2085.895 528 L 2069 528 2069 562.500 M 2215 562.511 L 2215 597.022 2255.750 596.761 L 2296.500 596.500 2296.500 587.500 L 2296.500 578.500 2269.750 578.234 L 2243 577.967 2243 574.500 L 2243 571.033 2269.750 570.766 L 2296.500 570.500 2296.790 562.250 L 2297.081 554 2270.040 554 L 2243 554 2243 550 L 2243 546 2270 546 L 2297 546 2297 537 L 2297 528 2256 528 L 2215 528 2215 562.511 M 2320.237 562.192 L 2320.500 596.500 2352.420 596.764 C 2387.017 597.051, 2392.073 596.504, 2399.771 591.645 C 2404.777 588.484, 2409.780 582.700, 2412.394 577.051 C 2415.451 570.445, 2415.421 554.492, 2412.339 547.824 C 2409.279 541.202, 2402.724 534.503, 2396.142 531.270 L 2390.500 528.500 2355.237 528.192 L 2319.974 527.883 2320.237 562.192 M 2433 562.528 L 2433 597.056 2446.750 596.778 L 2460.500 596.500 2460.763 562.250 L 2461.026 528 2447.013 528 L 2433 528 2433 562.528 M 2491.500 561.031 C 2481.600 579.190, 2473.352 594.724, 2473.172 595.550 C 2472.889 596.845, 2474.958 597.015, 2488.149 596.776 L 2503.455 596.500 2506.210 590.750 L 2508.966 585 2525.852 585 L 2542.739 585 2545.341 591 L 2547.943 597 2563.578 597 C 2575.682 597, 2579.103 596.718, 2578.723 595.750 C 2578.452 595.063, 2570.115 579.650, 2560.196 561.500 L 2542.162 528.500 2525.831 528.257 L 2509.500 528.015 2491.500 561.031 M 2521.270 559 L 2517.159 568 2525.579 568 C 2530.211 568, 2534 567.820, 2534 567.600 C 2534 566.843, 2526.091 550, 2525.736 550 C 2525.541 550, 2523.531 554.050, 2521.270 559 M 2348 562.500 L 2348 574 2364.577 574 L 2381.154 574 2384.077 571.077 C 2386.618 568.535, 2387 567.416, 2387 562.500 C 2387 557.584, 2386.618 556.465, 2384.077 553.923 L 2381.154 551 2364.577 551 L 2348 551 2348 562.500" stroke="none" fill="#c22328" fill-rule="evenodd"/></svg>