<svg width="24" height="25" viewBox="0 0 24 25" fill="none" xmlns="http://www.w3.org/2000/svg">
<path fill-rule="evenodd" clip-rule="evenodd" d="M4.5 4.07324C3.67157 4.07324 3 4.74481 3 5.57324V20.5732C3 21.4016 3.67157 22.0732 4.5 22.0732H19.5C20.3284 22.0732 21 21.4016 21 20.5732V5.57324C21 4.74481 20.3284 4.07324 19.5 4.07324H4.5ZM8.52076 8.07596C8.52639 9.03221 7.81061 9.62143 6.96123 9.61721C6.16107 9.61299 5.46357 8.97596 5.46779 8.07737C5.47201 7.23221 6.13998 6.55299 7.00764 6.57268C7.88795 6.59237 8.52639 7.23784 8.52076 8.07596ZM12.2797 10.835H9.75971H9.7583V19.3948H12.4217V19.1951C12.4217 18.8152 12.4214 18.4352 12.4211 18.0551C12.4203 17.0413 12.4194 16.0264 12.4246 15.0129C12.426 14.7668 12.4372 14.5109 12.5005 14.276C12.7381 13.3985 13.5271 12.8318 14.4074 12.9711C14.9727 13.0596 15.3467 13.3873 15.5042 13.9203C15.6013 14.2535 15.6449 14.6121 15.6491 14.9595C15.6605 16.0071 15.6589 17.0547 15.6573 18.1024C15.6567 18.4722 15.6561 18.8422 15.6561 19.212V19.3934H18.328V19.1881C18.328 18.7361 18.3278 18.2842 18.3275 17.8323C18.327 16.7028 18.3264 15.5733 18.3294 14.4434C18.3308 13.9329 18.276 13.4295 18.1508 12.9359C17.9638 12.2018 17.5771 11.5943 16.9485 11.1556C16.5027 10.8434 16.0133 10.6423 15.4663 10.6198C15.404 10.6173 15.3412 10.6139 15.2781 10.6105C14.9984 10.5953 14.7141 10.58 14.4467 10.6339C13.6817 10.7872 13.0096 11.1373 12.5019 11.7546C12.4429 11.8254 12.3852 11.8973 12.2991 12.0046L12.2797 12.0289V10.835ZM5.68164 19.3976H8.33242V10.8406H5.68164V19.3976Z" fill="currentColor"/>
</svg>
