<svg width="24" height="25" viewBox="0 0 24 25" fill="none" xmlns="http://www.w3.org/2000/svg">
<path d="M11 2.83057V9.24457C9.61534 8.98757 8.18509 9.16362 6.90406 9.74874C5.62303 10.3339 4.55349 11.2996 3.84108 12.5145C3.12867 13.7293 2.80803 15.1342 2.92282 16.5379C3.03762 17.9415 3.58226 19.2757 4.48259 20.3587C5.38292 21.4416 6.59516 22.2208 7.95424 22.59C9.31332 22.9592 10.7532 22.9005 12.0777 22.4219C13.4022 21.9434 14.5471 21.0682 15.3563 19.9156C16.1655 18.7629 16.5998 17.3889 16.6 15.9806V12.2446C17.675 12.7018 18.8319 12.9352 20 12.9306H21V7.33057H20C18.097 7.33057 16.6 5.79357 16.6 3.83057V2.83057H11ZM13 4.83057H14.688C15.082 7.05057 16.768 8.82657 19 9.24057V10.8586C17.962 10.7066 17.025 10.3166 16.157 9.73557L14.6 8.69357V15.9806C14.5999 16.9504 14.3091 17.898 13.765 18.7009C13.2209 19.5038 12.4486 20.1251 11.5478 20.4846C10.647 20.8441 9.65915 20.9253 8.71176 20.7177C7.76437 20.5101 6.90099 20.0232 6.23313 19.3199C5.56527 18.6166 5.1236 17.7292 4.96517 16.7724C4.80674 15.8155 4.93883 14.8331 5.34438 13.9521C5.74992 13.0711 6.4103 12.3319 7.24021 11.83C8.07012 11.3281 9.03145 11.0866 10 11.1366V12.7406C9.3485 12.6903 8.69695 12.8376 8.13041 13.1633C7.56387 13.4889 7.10865 13.9778 6.82417 14.5661C6.53969 15.1544 6.43915 15.8147 6.53569 16.461C6.63222 17.1073 6.92134 17.7095 7.36531 18.189C7.80928 18.6685 8.38748 19.003 9.02445 19.1489C9.66142 19.2948 10.3276 19.2453 10.936 19.0068C11.5444 18.7684 12.0668 18.3521 12.435 17.8122C12.8032 17.2723 13.0001 16.634 13 15.9806V4.83057ZM8.50003 15.9806C8.50003 15.649 8.63173 15.3311 8.86615 15.0967C9.10057 14.8623 9.41851 14.7306 9.75003 14.7306C10.0815 14.7306 10.3995 14.8623 10.6339 15.0967C10.8683 15.3311 11 15.649 11 15.9806C11 16.3121 10.8683 16.63 10.6339 16.8645C10.3995 17.0989 10.0815 17.2306 9.75003 17.2306C9.41851 17.2306 9.10057 17.0989 8.86615 16.8645C8.63173 16.63 8.50003 16.3121 8.50003 15.9806Z" fill="currentColor"/>
</svg>
